<?xml version="1.0" encoding="utf-8"?>
<!-- Generator: Adobe Illustrator 23.0.1, SVG Export Plug-In . SVG Version: 6.00 Build 0)  -->
<svg version="1.1" id="Layer_1" xmlns="http://www.w3.org/2000/svg" xmlns:xlink="http://www.w3.org/1999/xlink" x="0px" y="0px"
	 viewBox="0 0 80 80" style="enable-background:new 0 0 80 80;" xml:space="preserve">
<style type="text/css">
	.st0{fill:#FFFFFF;}
	.st1{fill:#231F20;}
	.st2{clip-path:url(#SVGID_2_);fill:#E8002A;}
	.st3{fill:#1D191A;}
</style>
<g>
	<g>
		<g>
			<path class="st0" d="M9.5,79.51c-1.69,0-3.11-1.32-3.25-3L0.5,4C0.43,3.1,0.74,2.2,1.35,1.54c0.61-0.67,1.49-1.05,2.4-1.05h72.51
				c0.91,0,1.78,0.38,2.39,1.05C79.26,2.2,79.57,3.1,79.5,4l-5.75,72.52c-0.13,1.68-1.56,3-3.25,3H9.5z"/>
			<path class="st1" d="M76.25,0H3.75C2.7,0,1.7,0.44,0.99,1.2C0.29,1.97-0.07,3,0.01,4.04l5.75,72.52C5.92,78.49,7.56,80,9.5,80h61
				c1.94,0,3.58-1.51,3.73-3.44l5.75-72.52C80.07,3,79.71,1.97,79.01,1.2C78.3,0.44,77.3,0,76.25,0 M76.25,0.98
				c1.62,0,2.89,1.37,2.76,2.98l-5.75,72.52c-0.11,1.44-1.32,2.55-2.76,2.55h-61c-1.45,0-2.65-1.11-2.76-2.55L0.98,3.96
				C0.86,2.35,2.13,0.98,3.75,0.98H76.25z"/>
			<g>
				<defs>
					<path id="SVGID_1_" d="M4.43,3.04c-0.78,0-1.4,0.67-1.34,1.45l5.69,71.75c0.03,0.41,0.37,0.73,0.79,0.73h60.85
						c0.41,0,0.75-0.32,0.79-0.73l5.69-71.75c0.06-0.78-0.56-1.45-1.34-1.45H4.43z"/>
				</defs>
				<clipPath id="SVGID_2_">
					<use xlink:href="#SVGID_1_"  style="overflow:visible;"/>
				</clipPath>
				<rect x="0.98" y="1.51" class="st2" width="19.51" height="54.74"/>
				<rect x="59.51" y="1.51" class="st2" width="19.51" height="54.74"/>
			</g>
			<path class="st1" d="M30.73,36.23c0.02,1,0.6,3.64,3.96,6.15c1.4,1.05,2.04,1.52,2.23,1.64l0,0.01c0.09,0.06-0.5,0.05-0.66,0.07
				c-0.26,0.03-1.16-0.06-1.87,0.08c-0.65,0.12-0.56,0.27-0.62,0.74c-0.05,0.37,0,0.96-0.02,1.46c-0.02,0.5-0.05,0.86,0.17,1.1
				c0.21,0.24,0.34,0.28,1.23,0.22c0.84-0.05,3.18-0.05,3.46-0.11c0.36-0.07,0.3,0.06,0.1,0.5c-0.36,0.77-1.52,4.28-3.33,7.61
				c-0.25,0.47,0.46,0.25,1.07,0.54c1.1,0.53,1.06,0.68,1.35,0.12c0.31-0.6,1.9-4.33,2.15-5.49c0.03-0.15,0.1-0.28,0.12-0.05
				c0.02,0.16,0.04,4.88-0.09,6.37c-0.01,0.08,0.01,0.16,0.07,0.22c0.08,0.08,0.2,0.12,0.3,0.14c0,0,0,0,0,0
				c0.55-0.18,1.21-0.32,1.77-0.22c0.05-0.01,0.1-0.02,0.14-0.03c0.03-0.03,0.06-0.05,0.08-0.09c0.04-0.08,0.07-0.17,0.09-0.26
				c0-0.01,0-0.01,0-0.02c0.03-0.13,0.05-0.25,0.06-0.38c0.01-0.08,0.01-0.15,0.02-0.23c0.01-0.1,0.01-0.2,0.01-0.29
				c0-0.12,0.01-0.24,0.01-0.36c0-0.14,0-0.27,0-0.41c0-0.15,0-0.31,0-0.46c0-0.17-0.01-0.11-0.01-0.28
				c-0.01-0.18-0.01-0.36-0.02-0.54c-0.01-0.19-0.02-0.38-0.03-0.57c-0.01-0.2-0.02-0.39-0.04-0.59c-0.01-0.2-0.03-0.4-0.05-0.6
				c-0.02-0.2-0.04-0.41-0.06-0.61c-0.02-0.21-0.05-0.41-0.07-0.62c-0.03-0.2-0.05-0.41-0.08-0.61c-0.03-0.2-0.06-0.4-0.1-0.6
				c-0.03-0.2-0.07-0.28-0.11-0.47c-0.04-0.19-0.08-0.38-0.13-0.56c-0.04-0.18-0.09-0.36-0.14-0.53c-0.04-0.14-0.08-0.28-0.13-0.42
				c-0.01-0.02-0.05-0.21-0.04-0.24c0.01-0.07,0.1-0.02,0.2-0.04c0,0,0.04-0.01,0.07-0.01c0.6-0.08,1.65-0.03,1.88-0.02
				c0.23,0.01,1.42,0.12,1.76,0.15c0.33,0.03,0.74,0.11,0.72-0.9c0-0.27-0.01-0.43,0-0.68c0-0.03,0-0.07,0-0.1c0-0.06,0-0.13,0-0.19
				c0-0.04,0-0.07,0-0.11c0-0.03,0-0.07,0-0.1c0-0.03,0-0.06,0-0.09c0-0.05,0-0.11,0.01-0.15c0-0.02,0-0.03,0-0.04
				c0-0.04,0-0.07,0-0.1c0-0.02,0-0.03,0-0.05c0-0.03,0-0.05,0-0.07c0-0.01,0-0.02,0-0.02c0-0.03,0-0.06,0.01-0.1
				c0.01-0.25-0.02-0.7-0.49-0.82c-0.54-0.13-1.48-0.17-2.33-0.09c-0.12,0.01-0.14,0-0.11-0.03l0-0.01
				c0.18-0.13,1.41-0.81,2.81-2.06c1.54-1.38,2.28-2.12,2.75-3.12c0,0,1.69-3.27,1.6-6.05c-0.02-0.56,0.07-0.51,0.42-0.5
				c0.1,0,0.5-0.03,0.72-0.17c0.72-0.16,1.35-2.61,1.35-2.61s1.08-3.71,1.34-5.23c0.23-1.35,0.18-2.14-0.65-2.54l-0.14-0.08
				c-0.06-0.04-0.09-0.11-0.07-0.18c0.02-0.06,0.03-0.12,0.04-0.18c0.4-1.4,1.12-3.17,0.96-3.89c-0.03-0.21-0.2-0.27-0.26-0.31
				c-0.08-0.06-0.4-0.41-0.49-0.66c-0.01-0.04-0.02-0.07-0.02-0.11c-0.23-2.64-1.17-5.96-3.96-8.84c0,0-0.19-0.18-0.31-0.28
				c-0.24-0.22-0.55-0.48-0.9-0.75c-0.74-0.56-1.34-0.98-2.56-1.6c-0.09-0.05-1.01-0.46-2.37-0.8c-0.13-0.03-0.26-0.07-0.38-0.1
				c-0.2-0.05-0.51-0.1-0.87-0.15c-0.84-0.13-1.77-0.2-2.73-0.14v0c-0.12,0.01-0.25,0.01-0.29,0.01c-0.06,0-0.12,0-0.18,0.01
				c-0.07,0-0.13,0-0.2,0.01c-0.2,0.01-0.47,0.04-0.76,0.08c-0.46,0.07-0.95,0.16-1.25,0.23c-0.34,0.08-0.79,0.18-1.36,0.34
				c-0.23,0.07-0.47,0.14-0.7,0.22c-0.07,0.02-0.13,0.04-0.2,0.06c-0.25,0.08-0.51,0.17-0.76,0.26c-0.19,0.07-0.98,0.41-1.15,0.49
				c-0.08,0.04-0.2,0.09-0.32,0.14c-0.56,0.18-0.68,0.5-0.7,0.68c-0.01,0.11-0.04,0.23-0.09,0.33c-0.8,1.71-2.7,1.88-3.45,1.91
				c-0.2,0.01-0.37,0.04-0.31,0.23c0.16,0.49,1.05,1.41,1.59,1.57c-0.01,0.08-0.46,0.18-0.56,0.2c-0.22,0.06-1.12-0.02-1.16-0.01
				c0,0-0.01,0-0.01,0c-1.02,0.09-1.33,0.78-1.42,1.11c-0.03,0.1-0.01,0.21,0.05,0.3c0.22,0.34,0.46,0.62,0.64,1.07
				c0,0,0,0.01,0.01,0.01c0.05,0.12,0.09,0.25,0.13,0.4c0.02,0.19,0.18,0.4-0.02,0.77c-0.35,0.67-1.21,0.88-1.34,1.55
				c-0.18,0.95,0.14,1.57,0.5,3.14c0.25,1.08,0.51,2.19,0.7,2.69c0.01,0.03-0.01,0.05-0.03,0.06c-0.08,0.01-0.21,0.04-0.25,0.06
				c-0.5,0.2-0.66,0.6-0.72,1.37c-0.13,1.71,1.14,4.35,1.53,6.61c0.13,0.76,0.48,1.99,1.07,2.49c0.14,0.12,0.42,0.19,0.59,0.22
				c0.46,0.08,0.66-0.21,0.68,0.25c0.01,0.1,0.04,0.35,0.04,0.5C29.86,34.62,30.73,36.23,30.73,36.23 M31.52,9.06
				c0.1-0.15,0.34-0.38,0.58-0.55c0.25-0.18,1.5-1.11,2.65-1.46c0.21-0.06,0.27-0.1,0.41-0.13c0.17-0.05,0.32-0.42-0.04-0.47
				c-0.38-0.05-0.53-0.03-0.73-0.02c-0.2,0-0.3-0.1-0.15-0.26c0.15-0.16,0.42-0.32,0.89-0.51c1.03-0.41,2.85-0.63,3.7-0.7
				c1.11-0.1,1.24-0.09,1.97-0.04c0.68,0.05,1.21,0.18,1.46,0.22c1.27,0.23,2.74,0.82,4.04,1.54c0.69,0.41,1.35,0.86,1.96,1.34
				c1.87,1.46,4.01,4.23,3.7,10.06c-0.04,0.69-0.12,1.07-0.16,1.24c-0.05,0.17-0.27,0.46-0.39,0.08c-0.39-1.25-0.88-3.45-2.01-5.19
				c-0.16-0.24-0.4-0.22-0.38,0.04c0.01,0.11,0.06,1.22,0.03,1.43c-0.18,1.43,0.26,0.88,0.9,2.41c0.2,0.48,0.46,1.42,0.52,2.02
				c0.02,0.15,0.04,0.33,0.04,0.5c0,0.21-0.1,0.23-0.1,0.23c-0.44,0-1.21-0.21-1.63-0.22c-0.47-0.02-3.76-0.05-4.99,0.05
				c-1.24,0.09-1.91,0.54-2.61,1.11c-0.12,0.1-0.28,0.18-0.37,0.23c-0.05,0.02-0.1,0.03-0.15,0.02c-0.06-0.01-0.15-0.03-0.29-0.06
				c-0.3-0.06-0.67-0.09-0.96,0c-0.29,0.09-0.43,0.16-0.75-0.02c-0.45-0.26-1.15-1.32-3.57-1.34c-1.37-0.01-3.18-0.03-4.24,0.02
				c-0.34,0.01-0.52,0.05-0.61,0.05c-0.01-0.04-0.01-0.1-0.01-0.11c-0.02-1.94,1.25-1.51,1.39-2.01c0.36-1.25,0.45-4.27,2.64-6.13
				c1.05-0.89,1.59-0.92,2.56-0.92c1.05,0,2.07,0.27,2.59,0.53c0.41,0.2,0.62,0.34,0.78,0.22c0.16-0.12,0.6-0.52,0.78-0.65
				c0.18-0.14,0.11-0.35-0.06-0.49c-0.16-0.13-1.72-2.09-4.1-2.48c-0.55-0.09-0.95-0.17-1.44-0.18c-0.27-0.01-0.51-0.01-1.13,0.06
				c-0.91,0.11-2.1,0.62-2.87,0.92C31.31,9.38,31.47,9.13,31.52,9.06 M50.29,21.64c-0.1,0.11-0.19,0.04-0.39,0.09
				c-0.16,0.04-0.26,0.13-0.41,0.12c-0.23-0.02-0.34-0.3-0.22-0.48c0.19-0.28,0.46-0.04,0.68,0c0.11,0.02,0.18-0.01,0.29,0.03
				C50.34,21.44,50.36,21.54,50.29,21.64 M47.03,22.62c0,0-0.43-0.3-0.57-0.54c-0.07-0.12-0.05-0.22,0.13-0.22
				c0.65-0.01,1.25-0.02,1.54,0.22c0.21,0.18,0.22,0.55,0.11,0.79c-0.12,0.27-0.36,0.2-0.49,0.18
				C47.61,23.03,47.03,22.62,47.03,22.62 M47.32,23.78c-0.12,0.06-0.59-0.09-0.72-0.17c-0.26-0.14-0.44-0.25-0.79-0.54
				c-0.23-0.19-0.65-0.28-1.04-0.27c-0.3,0.01-0.6,0.08-0.84,0.13c-0.23,0.06-0.25-0.15-0.18-0.23c0.07-0.08,0.39-0.37,1.09-0.56
				c0.1-0.03,0.3-0.02,0.4-0.01c0.29,0.03,0.64,0.23,0.9,0.47c0.25,0.25,0.76,0.68,1.04,0.85C47.31,23.55,47.61,23.63,47.32,23.78
				 M37.28,28.66c0.07,0.13,0.1,0.36,0.08,0.45c-0.02,0.11-0.42,0.26-0.76-0.24c-0.33-0.5-0.18-1.11,0.02-1.35
				c0.31-0.39,0.8-0.11,0.73,0.04C37.11,28.06,37.21,28.53,37.28,28.66 M32.65,23.1c0.08-0.07,0.11-0.07,0.38-0.21
				c0.19-0.11,0.41-0.24,0.63-0.38c0.4-0.26,1.16-0.53,1.48-0.53c0.23,0,0.64,0.1,0.85,0.34c0.23,0.25,0.29,0.53-0.01,0.48
				c-0.29-0.05-0.6-0.13-1.16,0c-0.63,0.14-1.05,0.38-1.36,0.52c-0.31,0.14-0.62,0.18-0.73,0.17C32.64,23.49,32.36,23.34,32.65,23.1
				 M32.24,22.54c-0.3,0.19-0.59,0.41-0.81,0.55c-0.27,0.18-0.65,0.01-0.54-0.37c0.05-0.19,0.32-0.66,0.76-0.74
				c0.06-0.01,0.28-0.05,0.46-0.08c0.21-0.02,0.44-0.04,0.56-0.05c0.31-0.01,0.35,0.24,0.14,0.37
				C32.65,22.31,32.43,22.42,32.24,22.54 M27.24,16.3c0.26-0.71,0.74-1.31,1.06-1.73c0.3-0.39,0.16-0.9,0-1.36
				c-0.1-0.42-0.37-0.86-0.41-0.98c-0.03-0.08-0.03-0.15-0.01-0.2c0.02-0.01,0.04-0.02,0.06-0.04l0.57-0.05
				c1.64-0.21,3.09-0.79,3.53-1.03c0.22-0.12,0.44-0.22,0.68-0.3c0.27-0.09,0.56-0.19,0.84-0.22c0.21-0.04,0.47-0.07,0.69-0.09
				c0.32-0.04,0.84,0.19,0.72,0.26c-0.27,0.16-1.55,0.46-2.67,1.8c-0.69,0.82-0.85,1.33-1.08,1.7c-0.23,0.38-0.42,0.47-0.75,0.75
				c-0.16,0.14-0.49,0.43-0.65,0.88c-0.16,0.46-0.79,2.08-0.87,4.65c-0.01,0.3-0.06,0.61-0.34,0.72c0,0,0,0,0,0
				c-0.23,0.09-0.42,0.25-0.46,0.08c-0.15-0.56-0.49-1.78-0.64-2.55c-0.05-0.24-0.1-0.48-0.16-0.72
				C27.19,17.21,27.12,16.63,27.24,16.3 M28.62,28.45c-0.47-0.31-0.44-0.72-0.56-1.12c-0.25-0.85-0.52-1.88-0.76-2.75
				c-0.14-0.53-0.18-1.77,0.54-1.77c0.36,0,0.63,0.11,0.75,0.45c0.26,0.76-0.23,0.62-0.1,1.52c0.09,0.63,0.21,1.26,0.41,2.33
				c0.09,0.49,0.25,1.69-0.18,1.4 M30.42,21.84c-0.15,0.02-0.27-0.07-0.43-0.11c-0.18-0.04-0.3,0.02-0.37-0.09
				c-0.07-0.1-0.06-0.2,0.05-0.24c0.11-0.04,0.18-0.01,0.29-0.03c0.22-0.04,0.48-0.29,0.68-0.01
				C30.76,21.53,30.65,21.81,30.42,21.84 M30.76,27.05c-0.07-0.28,0.06-0.7,0.72-0.28c0.11,0.07,0.42,0.21,0.76,0.31
				c0.21,0.06,0.34-0.03,0.4-0.18c0.06-0.15,0.23-0.45-0.06-0.59c-0.29-0.15-1.01-0.27-1.43-1.29c-0.07-0.18,0.05-0.39,0.17-0.44
				c0.12-0.05,0.26-0.03,0.4,0.1c0.13,0.13,0.42,0.4,0.68,0.41c0.24,0.01,0.28-0.09,0.32-0.14c0.2-0.22,0.77-1.06,1.96-0.92
				c0.49,0.06,0.94,0.17,1.11,0.18c0.12,0.01,0.44,0.02,0.76-0.04c0.36-0.07,0.89-0.18,0.63,0.12c-0.21,0.24-0.39,0.35-0.2,0.61
				c0.01,0.01,0.02,0.03,0.03,0.04c0.17,0.23,0.17,0.55,0,0.78l-0.02,0.03c-0.26,0.34-0.81,0.73-1.93,0.8
				c-0.51,0.03-0.54,0.01-0.55,0.31c0,0.11,0,0.17,0.01,0.25c0.03,0.15,0.12,0.21,0.48,0.23c0.26,0.02,0.73-0.03,0.73-0.04
				c0.12-0.03,0.25,0.04,0.18,0.14c-0.01,0.01-0.06,0.08-0.07,0.1c-0.25,0.33-0.33,0.63-0.36,0.81c-0.02,0.15-0.11,0.29-0.24,0.36
				c0,0,0,0-0.01,0c-0.16,0.08-0.83,0.23-1.35,0.66c-0.52,0.43-1.6,0.78-2.07,0.26C31.34,29.1,30.96,27.93,30.76,27.05 M35.64,39.46
				c-0.93,0.03-3.36-1.44-4.42-5.6c-0.27-1.07,0.4-1.94,0.82-2.09c0.25-0.09,0.38-0.12,0.46-0.13c0.09-0.01,0.51-0.01,0.49,0.47
				c-0.01,0.39,0.31,3.61,1.15,4.78c0.21,0.29,0.4,0.3,0.5,0.04c0.09-0.24,0.23-0.54,0.28-0.66c0.03-0.08,0.34-0.55,0.43-0.2
				c0.19,0.76,0.65,2.31,0.84,2.71C36.51,39.46,35.99,39.45,35.64,39.46 M36.22,32.72c-1.21-0.02-1.77-0.47-1.86-0.6
				c-0.08-0.13,0.06-0.23,0.18-0.27c0.29-0.09,0.8-0.35,1-0.5c0.21-0.15,0.78-0.51,1.07-0.7c0.14-0.09,0.92-0.43,1.37-0.11
				c0.68,0.48,1.32,0.8,2.49,0.72c0.75-0.05,0.74-0.65,1.35-0.85c0.55-0.17,0.66-0.31,0.83-0.41c0.22-0.04,0.39-0.1,0.63,0.12
				c0.31,0.29,0.42,0.51,0.77,0.91c0.49,0.55,1.02,0.81,1.19,0.84c0.17,0.03,0.28,0.17,0.29,0.22c0,0.05-0.07,0.23-0.56,0.37
				c-1.64,0.47-3.41,0.17-4.33-0.2c-0.46-0.19-0.91-0.24-1.42,0.01C38.72,32.53,37.35,32.73,36.22,32.72 M42.35,33.73
				c-0.28,0.1-1.09,0.29-1.48,0.31c-0.39,0.02-1.64,0.11-1.85,0.1c-0.26-0.01-0.61-0.14-0.89-0.4c-0.06-0.05-0.12-0.23,0.11-0.24
				c0.43-0.01,1.15-0.24,3.64-0.03c0.27,0.02,0.39,0.03,0.46,0.04C42.41,33.53,42.63,33.63,42.35,33.73 M52.99,24.1
				c-0.33,1.74-0.69,2.62-0.93,3.7c-0.24,1.12-0.73,2.76-1.19,2.8c-0.47,0.14-0.66-0.4-0.96,0c-0.18,0.24-0.32,0.56-0.48,0.76
				c-0.1,0.13-0.2,0.43-0.21,0.6c0,0.31-0.02,1.33-0.3,2.67c-0.42,2.01-1.2,3.48-2,4.41c-1.54,1.77-2.98,2.06-3.15,2.15
				c-0.22,0.12-0.55,0.05-0.66,0c-0.11-0.05-0.2-0.18-0.39-0.37c-0.2-0.18-0.26,0.1-0.27,0.17c-0.01,0.07,0.1,0.91-0.11,1.28
				c-0.46,0.82-0.9,0.89-1.15,1.9c-0.08,0.34-0.03,0.86-0.44,0.63c-1-0.57-2.44-2.12-2.74-3.63c-0.09-0.46-0.01-0.97,0.27-1.84
				c0.16-0.51,0.28-1.08,0.28-1.41c0-0.58-0.23-1.07,0-1.12c0.42-0.09,0.61,1,0.81,0.88c0.34-0.2,0.09-1.35,0.09-1.35
				s-0.14-0.33-0.74-0.47c-0.34-0.08-0.45-0.34-0.09-0.52c0.27-0.13,0.59-0.31,0.96-0.25c2.47,0.35,3.18-0.15,4.18-0.42
				c0.2-0.05,0.31-0.07,0.47,0c0.15,0.07,0.56,0.3,0.65,0.51c0.08,0.21,0,1.03,0.13,1.65c0.13,0.62,0.57,0.06,0.68-0.19
				c0.11-0.24,0.22-0.84,0.24-0.99c0.02-0.15,0.15-0.79,0.38-0.98c0.45-0.38,0.61-0.87,0.69-1.06c0.07-0.19,0.19-0.79,0.17-1.66
				c-0.02-0.87-0.18-0.96-0.39-1.15c-0.21-0.19-0.46-0.15-0.99-0.64c-0.47-0.43-0.86-1.13-1.2-1.57c-0.34-0.44-0.91-0.91-1.56-1.07
				c-0.65-0.16-0.38,0.44-0.34,0.61c0.03,0.12,0.18,0.65-0.04,0.82c-0.21,0.17-1.52,1.05-2.68,0.75c-1.39-0.36-1.87-1.14-1.9-1.88
				c-0.02-0.53,0.23-1.04,0.55-1.65c0.19-0.35,0.26-0.95,0.33-1.51c0.06-0.45,0.18-1.11,0.28-1.34c0.07-0.17,0.24-0.35,0.62-0.33
				c0.37,0.02,0.62,0.21,0.68,0.53c0.24,1.12,0.63,1.4,0.77,1.49c0.13,0.09,0.39-0.09,0.48-0.16c0.1-0.06,0.35-0.32,0.27-0.46
				c-0.12-0.21-0.19-0.34-0.21-0.46c-0.05-0.21,0.22-0.19,0.27-0.14c0.43,0.34,0.85,0.37,1.6,0.5c1.32,0.22,1.5-0.27,2.41-0.11
				c0.12,0.02,0.34,0.12,0.41,0.25c0.06,0.12,0.17,0.38,0.28,0.43c0.11,0.04,0.38,0.06,0.52,0.08c0.19,0.03,0.53,0.01,0.48,0.36
				c-0.15,0.95-1.24,1.21-1.75,1.3c-0.21,0.04-0.31,0.05-0.34,0.08c-0.11,0.1-0.11,0.39,0.01,0.59c0.09,0.14,0.5,0.14,1.07,0.03
				c0.59-0.11,1.16-0.4,1.6-1.1c0.47-0.74,0.73-2.36,0.79-2.67c0.05-0.3,0.18-0.81,0.34-0.92c0.17-0.1,0.94-0.34,1.04-0.32
				c0.13,0.02,0.22,0.08,0.28,0.38c0.06,0.3-0.05,2.09-0.05,2.36c0,0.29,0.14,0.29,0.23,0.25c0.18-0.08,0.66-0.4,0.77-0.77
				c0.08-0.27-0.15-0.67-0.03-1.05c0.18-0.59,0.36-0.75,0.48-0.74c0.75,0.07,0.9,0.4,0.73,1.36 M63.46,60.7
				c0.22,0.06,0.35,0.28,0.3,0.5l-0.77,3.49c-0.04,0.17-0.18,0.28-0.35,0.28h-1.1c-0.21,0-0.37-0.17-0.36-0.38c0-0.05,0-0.06,0-0.06
				c0.05-1.14-0.67-1.99-2.29-1.99c-2.7,0-4.67,2.22-4.92,5.13c-0.27,3.01,1.84,4.75,4.74,4.75c1.49,0,2.67-0.29,3.33-0.5
				c0.26-0.08,0.52,0.14,0.47,0.42l-0.34,1.8c-0.03,0.15-0.14,0.28-0.29,0.33c-0.6,0.19-2.27,0.64-4.83,0.64
				c-6.09,0-8.56-3.5-8.18-7.07c0.34-3.18,2.44-7.86,10.74-7.86C61.19,60.17,62.46,60.42,63.46,60.7 M29.15,60.71
				c0.04-0.18,0.2-0.31,0.38-0.31h5.98c0.23,0,0.41,0.22,0.36,0.44l-0.2,0.92c-0.03,0.16-0.16,0.27-0.32,0.28c-0.03,0-0.04,0-0.04,0
				c-0.45,0.06-1.26,0.21-1.93,0.73l-4.97,4.13c0,0,0,0,0,0l3.83,5.18c0.74,0.95,1.11,1.13,1.85,1.14c0.24,0,0.42,0.23,0.37,0.47
				l-0.21,0.93c-0.04,0.16-0.18,0.28-0.35,0.28H30.9c-3.3,0-4.21-1.45-6.96-6.47c0,0,0,0,0,0l-0.8,3.66
				c-0.12,0.57,0.36,0.87,0.7,1.01c0.02,0.01,0.03,0.01,0.04,0.02c0.17,0.07,0.26,0.24,0.22,0.42l-0.24,1.07
				c-0.04,0.16-0.18,0.28-0.35,0.28h-6.9c-0.24,0-0.42-0.22-0.37-0.46l0.2-0.92c0.04-0.17,0.18-0.29,0.34-0.31c0.01,0,0.01,0,0.02,0
				c0.63-0.07,1.3-0.47,1.71-2.43l1.57-7.17c0.2-0.95-0.28-1.32-0.69-1.48c0,0-0.03-0.01-0.07-0.02c-0.19-0.06-0.3-0.26-0.26-0.46
				l0.21-0.96c0.04-0.18,0.2-0.31,0.39-0.31h6.57c0.23,0,0.4,0.21,0.35,0.44l-0.21,0.94c-0.03,0.14-0.13,0.25-0.27,0.29
				c-0.02,0.01-0.03,0.01-0.05,0.02c-0.31,0.1-0.79,0.35-0.94,0.96l-0.87,3.99c0,0,0,0,0,0l5.09-4.23c0.31-0.25,0.23-0.59-0.12-0.72
				c0,0,0,0,0,0c-0.2-0.06-0.32-0.26-0.27-0.47L29.15,60.71 M47.54,64.69c-0.22,0-0.39-0.19-0.36-0.41c0-0.04,0-0.05,0-0.05
				c0.06-0.91-0.25-1.44-1.27-1.44l-3.16,0l-0.84,3.84l4.52,0c0.23,0,0.41,0.22,0.35,0.44l-0.44,1.98
				c-0.04,0.17-0.18,0.28-0.35,0.28h-4.68c0,0-0.52,2.36-0.54,2.46c-0.17,0.76,0.35,1.15,0.69,1.32c0.02,0.01,0.04,0.02,0.05,0.02
				c0.15,0.07,0.23,0.23,0.2,0.39l-0.24,1.08c-0.04,0.17-0.18,0.28-0.35,0.28h-5.5c-0.23,0-0.4-0.21-0.35-0.44l2.4-10.86
				c0.24-0.96-0.32-1.35-0.72-1.5c-0.01-0.01-0.03-0.01-0.04-0.01c-0.18-0.06-0.28-0.25-0.24-0.44l0.21-0.96
				c0.04-0.18,0.2-0.31,0.39-0.31h12.23c0.23,0,0.4,0.22,0.35,0.44l-0.79,3.56c-0.04,0.17-0.18,0.28-0.35,0.28H47.54"/>
		</g>
		<g>
			<path class="st3" d="M75.43,78.6v1.34h-0.21V78.6H74.8v-0.19h1.06v0.19H75.43z M77.27,79.94v-1.11l-0.37,0.73h-0.2l-0.37-0.73
				v1.11h-0.21v-1.53h0.21l0.47,0.93l0.47-0.93h0.2v1.53H77.27z"/>
		</g>
	</g>
</g>
</svg>
